<?xml version="1.0" encoding="utf-8"?>
<!-- Generator: Adobe Illustrator 16.0.4, SVG Export Plug-In . SVG Version: 6.00 Build 0)  -->
<!DOCTYPE svg PUBLIC "-//W3C//DTD SVG 1.1//EN" "http://www.w3.org/Graphics/SVG/1.1/DTD/svg11.dtd">
<svg version="1.1" id="Layer_1" xmlns="http://www.w3.org/2000/svg" xmlns:xlink="http://www.w3.org/1999/xlink" x="0px" y="0px"
	 width="45px" height="45px" viewBox="0 0 45 45" enable-background="new 0 0 45 45" xml:space="preserve">
<g>
	<g>
		<path fill="none" stroke="#54C8E7" stroke-width="2" stroke-miterlimit="10" d="M37.453,39.936c0,0.55-0.45,1-1,1H8.192
			c-0.55,0-1-0.45-1-1V5.472c0-0.55,0.45-1,1-1h28.261c0.55,0,1,0.45,1,1V39.936z"/>
	</g>
	<path fill="none" stroke="#54C8E7" stroke-width="2" stroke-miterlimit="10" d="M33.178,6.701c0.57,0,1.031,0.461,1.031,1.033
		c0.003,0.569-0.461,1.032-1.031,1.032c-0.571,0-1.034-0.463-1.034-1.032C32.144,7.162,32.606,6.701,33.178,6.701z"/>
	<path fill="none" stroke="#54C8E7" stroke-width="2" stroke-miterlimit="10" d="M29.281,6.701c0.569,0,1.029,0.461,1.029,1.033
		c0.004,0.569-0.46,1.032-1.029,1.032c-0.572,0-1.036-0.463-1.036-1.032C28.245,7.162,28.706,6.701,29.281,6.701z"/>
	<path fill="none" stroke="#54C8E7" stroke-width="2" stroke-miterlimit="10" d="M22.323,15.918
		c5.546-0.004,10.04,4.492,10.04,10.037c0.006,5.551-4.491,10.046-10.04,10.046c-5.547,0-10.042-4.495-10.042-10.043
		S16.775,15.914,22.323,15.918z"/>
	<path fill="none" stroke="#54C8E7" stroke-width="2" stroke-miterlimit="10" d="M22.323,18.726
		c3.994-0.003,7.232,3.235,7.232,7.229c0,4.001-3.235,7.235-7.232,7.235c-3.994,0-7.229-3.234-7.229-7.232
		C15.094,21.961,18.328,18.723,22.323,18.726z"/>
	<line fill="none" stroke="#54C8E7" stroke-width="2" stroke-miterlimit="10" x1="16.808" y1="4.064" x2="16.808" y2="10.064"/>
	<line fill="none" stroke="#54C8E7" stroke-width="2" stroke-miterlimit="10" x1="7.808" y1="11.064" x2="37.808" y2="11.064"/>
	<line fill="none" stroke="#54C8E7" stroke-width="2" stroke-miterlimit="10" x1="18.856" y1="27.266" x2="23.896" y2="22.225"/>
	<line fill="none" stroke="#54C8E7" stroke-width="2" stroke-miterlimit="10" x1="20.17" y1="29.238" x2="25.215" y2="24.195"/>
</g>
</svg>
