<?xml version="1.0" encoding="utf-8"?>
<!-- Generator: Adobe Illustrator 18.0.0, SVG Export Plug-In . SVG Version: 6.00 Build 0)  -->
<!DOCTYPE svg PUBLIC "-//W3C//DTD SVG 1.1//EN" "http://www.w3.org/Graphics/SVG/1.1/DTD/svg11.dtd">
<svg version="1.1" xmlns="http://www.w3.org/2000/svg" xmlns:xlink="http://www.w3.org/1999/xlink" x="0px" y="0px"
	 viewBox="0 0 450 300" enable-background="new 0 0 450 300" xml:space="preserve">
<pattern  width="172.9" height="172.9" patternUnits="userSpaceOnUse" id="Unnamed_Pattern_3" viewBox="0 -172.9 172.9 172.9" overflow="visible">
	<g>
		<polygon fill="none" points="0,0 172.9,0 172.9,-172.9 0,-172.9 		"/>
		<polygon fill="#F8B819" points="0,-172.9 172.9,-172.9 172.9,0 0,0 		"/>
	</g>
</pattern>
<g id="Layer_2">
</g>
<g id="Layer_1">
	<rect x="299" y="87" opacity="0.5" fill="#FFFFFF" width="40" height="39"/>
	<g>
		<g>
			<g id="XMLID_1_">
				<g>
					<path fill="#FFFFFF" d="M213.4,123.2c-31.2-2.6-55.4-21.1-55.4-43.6c0-24.2,28.2-43.9,63-43.9s63,19.6,63,43.9
						c0,22.8-25,41.6-57,43.7c-2,0.1-4,0.2-6,0.2C218.4,123.5,215.9,123.4,213.4,123.2z M212.1,106.1c0,2.7,0.9,4.6,3.7,4.6h10.8
						c2.7,0,3.8-1.9,3.8-4.6c0,0,0-0.1,0-0.1v-5.4v-6.3v-2c0-2.8,2.2-6.6,4.2-8.6c0,0,7.7-6.9,7.7-14.7c0-11.6-9.4-21-21-21
						c-11.6,0-21,9.4-21,21c0,8.1,7.9,15.1,7.9,15.1c2,1.9,4,5.7,4,8.5v1.7v6.3v5.4C212.1,106,212.1,106.1,212.1,106.1z"/>
					<path fill="#FFFFFF" d="M227,123.3l-6,14l-7.6-14.1c2.5,0.2,5.1,0.3,7.6,0.3C223,123.5,225,123.5,227,123.3z"/>
				</g>
				<g>
					<polyline fill="none" stroke="#FFFFFF" stroke-miterlimit="10" points="213.4,123.2 213.4,123.2 221,137.3 					"/>
					<line fill="none" stroke="#FFFFFF" stroke-miterlimit="10" x1="221" y1="137.3" x2="227" y2="123.3"/>
					<path fill="none" stroke="#FFFFFF" stroke-width="1.3903" stroke-miterlimit="10" d="M230.4,94.2v-2c0-2.8,2.2-6.6,4.2-8.6
						c0,0,7.7-6.9,7.7-14.7c0-11.6-9.4-21-21-21c-11.6,0-21,9.4-21,21c0,8.1,7.9,15.1,7.9,15.1c2,1.9,4,5.7,4,8.5v1.7v6.3v5.4
						c0,0,0,0.1,0,0.1c0,2.7,0.9,4.6,3.7,4.6h10.8c2.7,0,3.8-1.9,3.8-4.6c0,0,0-0.1,0-0.1v-5.4V94.2z"/>
					
						<line fill="none" stroke="#FFFFFF" stroke-width="1.3903" stroke-miterlimit="10" x1="212.1" y1="100.5" x2="230.4" y2="100.5"/>
					<line fill="none" stroke="#FFFFFF" stroke-width="1.3903" stroke-miterlimit="10" x1="212.1" y1="94.2" x2="230.4" y2="94.2"/>
					
						<line fill="none" stroke="#FFFFFF" stroke-width="1.3903" stroke-miterlimit="10" x1="212.1" y1="106.1" x2="230.4" y2="106.1"/>
				</g>
			</g>
		</g>
	</g>
	<g>
		<line fill="none" stroke="#FFFFFF" stroke-width="3" stroke-miterlimit="10" x1="96" y1="126.5" x2="151" y2="126.5"/>
		<pattern  id="SVGID_1_" xlink:href="#Unnamed_Pattern_3" patternTransform="matrix(1 0 0 1 -293.0278 -571.9585)">
		</pattern>
		
			<path fill-rule="evenodd" clip-rule="evenodd" fill="url(#SVGID_1_)" stroke="#CAC9CA" stroke-width="0.5359" stroke-miterlimit="10" d="
			M92,88.5"/>
		<line opacity="0.5" fill="none" stroke="#FFFFFF" stroke-width="4" stroke-miterlimit="10" x1="106" y1="125" x2="106" y2="104"/>
		<line opacity="0.5" fill="none" stroke="#FFFFFF" stroke-width="4" stroke-miterlimit="10" x1="115" y1="125" x2="115" y2="95"/>
		<line opacity="0.5" fill="none" stroke="#FFFFFF" stroke-width="4" stroke-miterlimit="10" x1="124" y1="125" x2="124" y2="113"/>
		<line opacity="0.5" fill="none" stroke="#FFFFFF" stroke-width="4" stroke-miterlimit="10" x1="134" y1="125" x2="134" y2="80"/>
		<line opacity="0.5" fill="none" stroke="#FFFFFF" stroke-width="4" stroke-miterlimit="10" x1="143" y1="125" x2="143" y2="89"/>
		<line fill="none" stroke="#FFFFFF" stroke-width="3" stroke-miterlimit="10" x1="97.5" y1="73" x2="97.5" y2="126"/>
	</g>
	<g>
		<g>
			<rect x="299" y="86" fill="none" stroke="#FFFFFF" stroke-width="2" stroke-miterlimit="10" width="40" height="41"/>
			
				<line fill="none" stroke="#FFFFFF" stroke-width="3" stroke-linecap="round" stroke-linejoin="round" stroke-miterlimit="10" x1="319.5" y1="85" x2="319.5" y2="125"/>
			
				<line fill="none" stroke="#FFFFFF" stroke-width="3" stroke-linecap="round" stroke-linejoin="round" stroke-miterlimit="10" x1="338" y1="105.5" x2="300" y2="105.5"/>
			
				<path fill="none" stroke="#FFFFFF" stroke-width="2.6916" stroke-linecap="round" stroke-linejoin="round" stroke-miterlimit="10" d="
				M304.9,81.2c-2.6-2.1-3-5.8-0.9-8.4c2.1-2.6,5.8-3,8.4-0.9c2.6,2.1,6.8,13.1,6.8,13.1S307.4,83.3,304.9,81.2z"/>
			
				<path fill="none" stroke="#FFFFFF" stroke-width="2.6916" stroke-linecap="round" stroke-linejoin="round" stroke-miterlimit="10" d="
				M334.1,81.2c2.6-2.1,3-5.8,0.9-8.4c-2.1-2.6-5.8-3-8.4-0.9c-2.6,2.1-6.8,13.1-6.8,13.1S331.5,83.3,334.1,81.2z"/>
		</g>
	</g>
	<g>
		<path fill="none" stroke="#FFFFFF" stroke-width="2" stroke-miterlimit="10" d="M151,134c-8.5,3.6-18.4,5.6-29,5.6
			c-30.9,0-56-17.5-56-39s25.1-39,56-39s56,17.5,56,39c0,10.6-6.1,20.2-15.9,27.2"/>
		<line fill="none" stroke="#FFFFFF" stroke-width="2" stroke-miterlimit="10" x1="150.6" y1="134" x2="164.5" y2="143.1"/>
		<line fill="none" stroke="#FFFFFF" stroke-width="2" stroke-miterlimit="10" x1="164.4" y1="143.2" x2="162.3" y2="127.5"/>
	</g>
	<g>
		<path fill="none" stroke="#FFFFFF" stroke-width="2" stroke-miterlimit="10" d="M289,134c8.5,3.6,18.4,5.6,29,5.6
			c30.9,0,56-17.5,56-39s-25.1-39-56-39s-56,17.5-56,39c0,10.6,6.1,20.2,15.9,27.2"/>
		<line fill="none" stroke="#FFFFFF" stroke-width="2" stroke-miterlimit="10" x1="289.4" y1="134" x2="275.5" y2="143.1"/>
		<line fill="none" stroke="#FFFFFF" stroke-width="2" stroke-miterlimit="10" x1="275.6" y1="143.2" x2="277.7" y2="127.5"/>
	</g>
	<g>
		<g id="XMLID_3_">
			<g>
				<path fill="#FFFFFF" d="M240.2,165.3c-0.9,0-1.8,0.1-2.7,0.2c0,0-0.1,0-0.1,0C238.2,165.3,239.2,165.3,240.2,165.3z"/>
				<path fill="#FFFFFF" d="M261.7,209.9c-2,0.3-3.7-1.1-4.2-4.5l-4.4-25.7v-6.3c0-6.2-1.5-7.7-5.1-8c2.4-0.3,10.9,0.7,12.2,8.8
					l4.2,30c0.1,0.5,0.1,1,0.1,1.4C264.5,208.2,263.4,209.7,261.7,209.9z"/>
				<path fill="#FFFFFF" d="M230.5,209.6h-0.1v-0.1l0.9-29.4l0.2-5.6c0-6.1,1.3-8.2,4.6-8.9c0.1,0,0.1,0,0.2,0c0,0,0.1,0,0.2,0
					l1.3,0c1.4,0.6,2.8,0.9,4.4,0.9c1.7,0,3.4-0.4,4.9-1.2c0.3,0,0.6,0,0.9,0.1c0.1,0,0.1,0,0.2,0c3.5,0.3,5.1,1.8,5.1,8v6.3v23.3
					v6.4L230.5,209.6z"/>
				<path fill="#FFFFFF" d="M240.2,165.3c0.5,0,1.1,0,1.6,0l0.8,0c1.2,0,2.3,0,3.3,0l-8.1,0.3c-0.1,0-0.1-0.1-0.2-0.1
					C238.4,165.4,239.3,165.3,240.2,165.3z"/>
				<path fill="#FFFFFF" d="M224.3,174.2c1.4-8.2,10.4-9,12.5-8.6c-0.2,0-0.4,0-0.5,0.1c-0.1,0-0.1,0-0.2,0
					c-3.3,0.7-4.6,2.8-4.6,8.9l-0.2,5.6l-4.6,25.3c-0.5,3.4-2.1,4.8-4.2,4.4c-1.7-0.3-2.8-1.7-2.8-4.2c0-0.5,0.1-1,0.1-1.6
					L224.3,174.2z"/>
				<path fill="#FFFFFF" d="M243.3,216.9c-0.4,0-0.7,0.1-1.1,0.1c-0.5,0-1.1,0-1.5-0.1v2.2l-2.8,38.3c0,2.7-2,4.7-3.4,4.9h-1.9
					c-3.4,0-4.3-2.2-4.3-4.9l2.3-47.8l22.6-0.1v-6.4l2.6,54.4c0,2.7-0.9,4.9-4.3,4.9h-1.9c-1.4-0.2-3.4-2.3-3.4-4.9l-2.8-38.3
					L243.3,216.9z"/>
				<path fill="#FFFFFF" d="M242.1,141.7c6.4,0,11.6,5.5,11.6,12.4c0,4.9-2.7,9.2-6.7,11.2l-1.2,0c-1,0-2.1,0-3.3,0l-0.8,0
					c-0.5,0-1.1,0-1.6,0c-1,0-1.9,0-2.8,0.1c-4.1-1.9-7-6.3-7-11.4C230.5,147.2,235.7,141.7,242.1,141.7z"/>
				<path fill="#FFFFFF" d="M247.1,165.3C247,165.3,247,165.3,247.1,165.3c-0.5,0-0.8,0-1.2,0L247.1,165.3z"/>
				<path fill="#FFFFFF" d="M245.9,165.3c0.4,0,0.8,0,1.1,0c-1.5,0.7-3.1,1.2-4.9,1.2c-1.5,0-3-0.3-4.4-0.9L245.9,165.3z"/>
				<path fill="#FFFFFF" d="M237.7,165.6l-1.3,0c0.4-0.1,0.7-0.1,1.1-0.1C237.6,165.5,237.6,165.6,237.7,165.6z"/>
				<path fill="#FFFFFF" d="M237.4,165.5C237.5,165.5,237.5,165.5,237.4,165.5c-0.3,0.1-0.6,0.1-1,0.2c-0.1,0-0.1,0-0.2,0
					c0.2-0.1,0.3-0.1,0.5-0.1C237,165.5,237.2,165.5,237.4,165.5z"/>
			</g>
			<g>
				<path fill="none" stroke="#FFFFFF" stroke-width="0.4517" stroke-miterlimit="10" d="M243.6,216.9c-0.1,0-0.2,0-0.3,0
					c-0.4,0-0.7,0.1-1.1,0.1c-0.5,0-1.1,0-1.5-0.1"/>
				<polyline fill="none" stroke="#FFFFFF" stroke-width="0.4517" stroke-miterlimit="10" points="230.4,209.6 230.5,209.6 
					253.1,209.5 				"/>
			</g>
		</g>
	</g>
	<g>
		<g id="XMLID_4_">
			<g>
				<path fill="#FFFFFF" d="M177,180c1.3-7.7,9.7-8.4,11.7-8.1c-0.2,0-0.3,0-0.5,0.1H188c0,0-0.1,0-0.1,0c-0.1,0-0.2,0-0.2,0
					c-2.9,0.7-4.1,2.7-4.1,8.3l-0.2,5.2l-4.3,23.7c-0.5,3.2-2,4.4-3.9,4.1c-1.6-0.3-2.6-1.6-2.6-3.9c0-0.5,0.1-0.9,0.1-1.4L177,180z
					"/>
				<path fill="#FFFFFF" d="M203.9,179.4v5.9V207v6l-21.1,0.1h-0.1V213l0.9-27.4l0.2-5.2c0-5.5,1.2-7.5,4.1-8.3c0,0,0.1,0,0.2,0
					c0.1,0,0.2,0,0.4,0l1.1,0c1.3,0.6,2.7,0.9,4.2,0.9c1.6,0,3.2-0.4,4.6-1.1c0.3,0,0.5,0,0.8,0.1c0,0,0.1,0,0.1,0
					C202.4,172.2,203.9,173.5,203.9,179.4z"/>
				<path fill="#FFFFFF" d="M189.4,172l7.7-0.3c0.4,0,0.8,0,1.1,0c-1.4,0.7-3,1.1-4.6,1.1C192.1,172.9,190.7,172.6,189.4,172z"/>
				<path fill="#FFFFFF" d="M210.5,180.1l3.8,28c0.1,0.5,0.1,1,0.1,1.4c0,2.4-1,3.7-2.6,3.9c-1.9,0.3-3.5-1-3.9-4.2l-4.1-23.9v-5.9
					c0-5.9-1.4-7.2-4.8-7.5C201.1,171.6,209.4,172.5,210.5,180.1z"/>
				<path fill="#FFFFFF" d="M194.7,219.9c-0.3,0-0.7,0.1-1,0.1c-0.5,0-1,0-1.4-0.1v2l-2.6,35.8c0,2.5-1.8,4.4-3.2,4.6h-1.8
					c-3.2,0-4-2-4-4.5l2.1-44.7l21.1-0.1v-6l2.4,50.8c0,2.5-0.8,4.5-4,4.5h-1.8c-1.3-0.2-3.2-2.1-3.2-4.6l-2.6-35.8L194.7,219.9z"/>
				<path fill="#FFFFFF" d="M193.6,149.7c6,0,10.9,5.2,10.9,11.6c0,4.6-2.5,8.6-6.1,10.4l-1.3,0c-0.9,0-1.9,0-3,0l-0.7,0
					c-0.5,0-1,0-1.4,0c-1,0-1.9,0-2.7,0.1c-3.8-1.8-6.4-5.9-6.4-10.6C182.7,154.9,187.6,149.7,193.6,149.7z"/>
				<path fill="#FFFFFF" d="M198.3,171.7c0,0-0.1,0.1-0.1,0.1c-0.3,0-0.7,0-1.1,0L198.3,171.7z"/>
				<path fill="#FFFFFF" d="M197.1,171.8l-7.7,0.3c0,0-0.1-0.1-0.2-0.1c0.8-0.1,1.7-0.1,2.6-0.2c0.5,0,1,0,1.4,0l0.7,0
					C195.2,171.8,196.2,171.8,197.1,171.8z"/>
				<path fill="#FFFFFF" d="M191.8,171.8c-0.9,0-1.8,0.1-2.6,0.2c0,0-0.1,0-0.1,0C190,171.8,190.8,171.8,191.8,171.8z"/>
				<path fill="#FFFFFF" d="M189.4,172l-1.1,0c0.3-0.1,0.6-0.1,0.9-0.1C189.3,172,189.4,172,189.4,172z"/>
				<path fill="#FFFFFF" d="M189.2,171.9C189.2,171.9,189.2,171.9,189.2,171.9c-0.2,0.1-0.5,0.1-0.8,0.2h-0.2
					c0.2-0.1,0.3-0.1,0.5-0.1C188.8,171.9,189,171.9,189.2,171.9z"/>
				<path fill="#FFFFFF" d="M188.3,172.1c-0.2,0-0.3,0-0.4,0c0,0,0.1,0,0.1,0h0.1H188.3z"/>
			</g>
			<g>
				<path fill="none" stroke="#FFFFFF" stroke-width="0.4217" stroke-miterlimit="10" d="M195,219.9c-0.1,0-0.2,0-0.3,0
					c-0.3,0-0.7,0.1-1,0.1c-0.5,0-1,0-1.4-0.1"/>
				<polyline fill="none" stroke="#FFFFFF" stroke-width="0.4217" stroke-miterlimit="10" points="182.7,213.1 182.8,213.1 
					203.9,213 				"/>
			</g>
		</g>
	</g>
	<g>
		<g id="XMLID_5_">
			<g>
				<path fill="#FFFFFF" d="M165.5,214.4l0.7,4.8c-2.2,0.5-4.6-0.6-5.3-3l-1-5.9v-4.1c0-4-1-5-3.3-5.2c1.4-0.2,7.1,0.5,7.9,5.6
					L165.5,214.4z"/>
				<path fill="#FFFFFF" d="M145.2,229.4l0.6-18.9l0.1-3.6c0-3.8,0.8-5.2,2.8-5.7c0.1,0,0.2,0,0.3,0c0,0,0.1,0,0.1,0l0.8,0
					c0.9,0.4,1.8,0.6,2.9,0.6c1.1,0,2.2-0.3,3.2-0.7c0.2,0,0.4,0,0.6,0c0,0,0.1,0,0.1,0c2.3,0.2,3.3,1.2,3.3,5.2v4.1v14.9v0.1v4
					H145.2L145.2,229.4L145.2,229.4z"/>
				<path fill="#FFFFFF" d="M155.1,201l-5.3,0.2c0,0-0.1,0-0.1-0.1c0.6-0.1,1.2-0.1,1.8-0.1c0.3,0,0.7,0,1,0l0.5,0
					C153.8,201,154.5,201,155.1,201z"/>
				<path fill="#FFFFFF" d="M151.5,201c-0.6,0-1.2,0-1.8,0.1c0,0,0,0,0,0C150.2,201,150.8,201,151.5,201z"/>
				<path fill="#FFFFFF" d="M145.3,193.8c0-4.4,3.3-8,7.5-8c4.1,0,7.5,3.6,7.5,8c0,3.1-1.7,5.9-4.2,7.2l-0.8,0c-0.6,0-1.3,0-2.1,0
					l-0.5,0c-0.3,0-0.7,0-1,0c-0.7,0-1.3,0-1.8,0.1C147.1,199.8,145.3,197,145.3,193.8z"/>
				<path fill="#FFFFFF" d="M177.9,208.1c0.3,0.4,0.5,0.8,0.5,1.2c0,0.6-0.3,1.1-0.9,1.6l-9.5,7.4c-0.5,0.4-1.1,0.7-1.7,0.8
					l-0.7-4.8l9.6-6.6C176.1,206.9,177.2,207.2,177.9,208.1z"/>
				<path fill="#FFFFFF" d="M153.5,234.2c-0.2,0-0.5,0-0.7,0c-0.3,0-0.7,0-1-0.1v1.4l-1.8,24.6c0,1.7-1.3,3.1-2.2,3.2h-1.2
					c-2.2,0-2.8-1.4-2.8-3.1l1.5-30.7l14.5-0.1v-4l1.7,34.8c0,1.7-0.6,3.1-2.8,3.1h-1.2c-0.9-0.1-2.2-1.5-2.2-3.2l-1.8-24.6
					L153.5,234.2z"/>
				<path fill="#FFFFFF" d="M156,201C156,201,155.9,201,156,201c-0.3,0-0.6,0-0.8,0L156,201z"/>
				<path fill="#FFFFFF" d="M155.1,201c0.3,0,0.5,0,0.8,0c-1,0.5-2,0.7-3.2,0.7c-1,0-2-0.2-2.9-0.6L155.1,201z"/>
				<path fill="#FFFFFF" d="M149.9,201.2l-0.8,0c0.2,0,0.4-0.1,0.7-0.1C149.8,201.1,149.8,201.1,149.9,201.2z"/>
				<path fill="#FFFFFF" d="M149.7,201.1C149.7,201.1,149.7,201.1,149.7,201.1c-0.2,0-0.4,0.1-0.6,0.1c0,0-0.1,0-0.1,0
					c0.1,0,0.2,0,0.3-0.1S149.6,201.1,149.7,201.1z"/>
				<path fill="#FFFFFF" d="M148.7,201.2c-2,0.5-2.8,1.9-2.8,5.7l-0.1,3.6l-3,16.3c-0.3,2.2-1.4,3.1-2.7,2.9
					c-1.1-0.2-1.8-1.1-1.8-2.7c0-0.3,0-0.6,0.1-1l2.9-19.3c0.9-5.3,6.7-5.8,8-5.6c-0.1,0-0.2,0-0.3,0.1
					C148.9,201.2,148.8,201.2,148.7,201.2z"/>
			</g>
			<g>
				<path fill="none" stroke="#FFFFFF" stroke-width="0.2903" stroke-miterlimit="10" d="M153.7,234.2c-0.1,0-0.1,0-0.2,0
					c-0.2,0-0.5,0-0.7,0c-0.3,0-0.7,0-1-0.1"/>
				<polyline fill="none" stroke="#FFFFFF" stroke-width="0.2903" stroke-miterlimit="10" points="145.2,229.4 145.3,229.4 
					159.8,229.4 				"/>
			</g>
		</g>
	</g>
	<g>
		<g id="XMLID_6_">
			<g>
				<path fill="#FFFFFF" d="M285.7,187.3c-0.7,0-1.4,0.1-2.1,0.1c0,0-0.1,0-0.1,0C284.2,187.3,284.9,187.3,285.7,187.3z"/>
				<path fill="#FFFFFF" d="M291.8,187.4c1.8-0.2,8.7,0.6,9.6,6.9l3.2,23.5c0.1,0.4,0.1,0.8,0.1,1.2c0,2-0.8,3.1-2.2,3.3
					c-1.6,0.2-2.9-0.9-3.3-3.5l-3.4-20.1v-5C295.9,188.8,294.7,187.6,291.8,187.4z"/>
				<path fill="#FFFFFF" d="M296.4,178.5c0,3.9-2.1,7.2-5.2,8.8l-1,0c-0.7,0-1.6,0-2.6,0l-0.6,0c-0.4,0-0.8,0-1.2,0
					c-0.8,0-1.5,0-2.2,0.1c-3.2-1.5-5.4-4.9-5.4-8.9c0-5.4,4.1-9.8,9.1-9.8C292.3,168.7,296.4,173.1,296.4,178.5z"/>
				<path fill="#FFFFFF" d="M287.2,188.2c1.3,0,2.6-0.3,3.8-0.9c0.3,0,0.5,0,0.7,0.1c0,0,0.1,0,0.1,0c2.8,0.2,4.1,1.4,4.1,6.3v5
					v18.2v5l-17.7,0.1h-0.1v-0.1l0.7-23l0.1-4.4c0-4.6,1-6.3,3.4-6.9c0.1,0,0.2-0.1,0.3-0.1c0,0,0.1,0,0.1,0l1,0
					C284.9,188,286,188.2,287.2,188.2z"/>
				<path fill="#FFFFFF" d="M285.7,187.3c0.4,0,0.8,0,1.2,0l0.6,0c1,0,1.8,0,2.6,0l-6.4,0.2c-0.1,0-0.1-0.1-0.2-0.1
					C284.4,187.3,285,187.3,285.7,187.3z"/>
				<path fill="#FFFFFF" d="M291,187.3c-1.2,0.6-2.5,0.9-3.8,0.9c-1.2,0-2.4-0.2-3.4-0.7l6.4-0.2C290.5,187.3,290.8,187.3,291,187.3
					z"/>
				<path fill="#FFFFFF" d="M288.2,227.7c-0.3,0-0.6,0.1-0.9,0.1c-0.4,0-0.8,0-1.2-0.1v1.7l-2.2,30c0,2.1-1.5,3.7-2.7,3.9h-1.5
					c-2.7,0-3.4-1.7-3.4-3.8l1.8-37.5l17.7-0.1v-5l2,42.6c0,2.1-0.7,3.8-3.4,3.8h-1.5c-1.1-0.1-2.7-1.8-2.7-3.9l-2.1-30L288.2,227.7
					z"/>
				<path fill="#FFFFFF" d="M291.1,187.3c0,0.1-0.1,0.1-0.1,0.1c-0.3,0-0.6,0-0.9,0L291.1,187.3z"/>
				<path fill="#FFFFFF" d="M283.8,187.5l-1,0c0.3-0.1,0.6-0.1,0.9-0.1C283.7,187.4,283.8,187.5,283.8,187.5z"/>
				<path fill="#FFFFFF" d="M283.6,187.4C283.6,187.4,283.6,187.4,283.6,187.4c-0.2,0.1-0.5,0.1-0.8,0.1c-0.1,0-0.1,0-0.1,0
					c0.1-0.1,0.3-0.1,0.4-0.1S283.4,187.4,283.6,187.4z"/>
				<path fill="#FFFFFF" d="M282.4,187.6c-2.5,0.6-3.4,2.3-3.4,6.9l-0.1,4.4l-3.6,19.9c-0.4,2.7-1.7,3.7-3.3,3.5
					c-1.4-0.2-2.2-1.4-2.2-3.3c0-0.4,0.1-0.8,0.1-1.2l3.5-23.5c1.1-6.4,8.1-7,9.8-6.8c-0.2,0-0.3,0-0.4,0.1
					C282.6,187.5,282.5,187.6,282.4,187.6z"/>
			</g>
			<g>
				<path fill="none" stroke="#FFFFFF" stroke-width="0.3542" stroke-miterlimit="10" d="M288.4,227.7c-0.1,0-0.2,0-0.3,0
					c-0.3,0-0.6,0.1-0.9,0.1c-0.4,0-0.8,0-1.2-0.1"/>
				<polyline fill="none" stroke="#FFFFFF" stroke-width="0.3542" stroke-miterlimit="10" points="278.1,222 278.2,222 295.9,221.9 
									"/>
			</g>
		</g>
	</g>
	<path fill="none" stroke="#6BA1B9" stroke-width="2" stroke-linecap="round" stroke-linejoin="round" d="M244.7,68.2
		c-0.2-12.3-9.9-21.7-23.8-21.7c-13.9,0-22.1,9.5-22.8,21.7c-0.5,8.5,7.3,15.9,7.3,15.9c2.4,2,4.8,6.1,4.8,9v14.3c0,2.9,1.1,5,4.4,5
		h12.9c3.3,0,4.6-2,4.6-5V92.7c0-2.9,2.7-7,5-9.1C237.1,83.6,244.8,75,244.7,68.2z"/>
</g>
</svg>
